<svg xmlns="http://www.w3.org/2000/svg" width="14" height="14">
    <path fill="#FFF" fill-rule="evenodd" d="M1.224 1.512C.494 2.242.119 3.147.099 4.23v5.626c.02 1.083.395 1.99 1.125 2.719.729.729 1.635 1.104 2.719 1.124h5.625c1.083-.02 1.989-.395 2.718-1.124.729-.729 1.104-1.636 1.125-2.719V4.23c-.021-1.083-.396-1.988-1.125-2.718C11.557.783 10.651.408 9.568.387H3.943c-1.084.021-1.99.396-2.719 1.125zm8.469.188c.687.021 1.254.255 1.703.703.447.448.682 1.015.703 1.703v5.875c-.021.687-.256 1.255-.703 1.703-.449.448-1.016.683-1.703.703H3.818c-.688-.02-1.256-.255-1.704-.703-.448-.448-.682-1.016-.703-1.703V4.106c.021-.688.255-1.255.703-1.703.448-.448 1.016-.682 1.704-.703h5.875zm-.016 1.265c-.156.156-.234.349-.234.578 0 .23.078.422.234.579.156.156.349.234.578.234.229 0 .422-.078.578-.234.156-.157.235-.349.235-.579 0-.229-.079-.422-.235-.578-.156-.156-.349-.244-.578-.265-.229.021-.422.109-.578.265zM4.396 4.684c-.636.636-.964 1.422-.985 2.36.021.937.349 1.723.985 2.359.635.635 1.422.963 2.359.984.938-.021 1.724-.349 2.359-.984.636-.636.964-1.422.985-2.359-.021-.938-.349-1.724-.985-2.36-.635-.635-1.421-.963-2.359-.985-.937.022-1.724.35-2.359.985zm3.765.953c.375.375.563.844.563 1.407 0 .562-.188 1.031-.563 1.405-.375.376-.843.563-1.406.563-.562 0-1.031-.187-1.406-.563-.375-.374-.563-.843-.563-1.405 0-.563.188-1.032.563-1.407.375-.375.844-.573 1.406-.593.563.02 1.031.218 1.406.593z"/>
</svg>
