<svg xmlns="http://www.w3.org/2000/svg" width="11" height="13">
    <path fill="#FFF" fill-rule="evenodd" d="M9.88 8.09c.708-.906 1.052-1.932 1.031-3.078-.021-1.416-.521-2.588-1.5-3.516C8.432.57 7.213.085 5.755.043 4.297.085 3.078.57 2.099 1.496c-.98.928-1.48 2.1-1.5 3.516 0 .875.219 1.688.656 2.437.188.272.427.418.719.438.25-.02.453-.109.609-.265.156-.156.235-.349.235-.579 0-.145-.032-.291-.094-.437-.313-.5-.469-1.031-.469-1.594.021-.937.359-1.719 1.016-2.344.656-.625 1.484-.947 2.484-.968.979.021 1.802.343 2.469.968.666.625 1.01 1.407 1.031 2.344.021.708-.172 1.349-.578 1.921-.406.574-1.089.871-2.047.892-.333 0-.604-.104-.813-.313-.208-.208-.312-.479-.312-.812.021-.376.141-.745.359-1.11.219-.364.349-.817.391-1.359-.021-.438-.146-.735-.375-.891-.229-.156-.505-.234-.828-.234-.323 0-.63.136-.922.406-.292.271-.448.761-.469 1.469.021.375.052.677.094.906l.094.344-1.594 4.781v.125c0 .25.088.464.266.641.176.177.39.265.64.265.354 0 .615-.145.781-.437h.032l.844-2.844c.479.5 1.072.76 1.781.781 1.479-.062 2.573-.547 3.281-1.453z"/>
</svg>
