<svg xmlns="http://www.w3.org/2000/svg" width="15" height="13">
    <path fill="#FFF" fill-rule="evenodd" d="M13.286 3.543l.032.375c-.021 1.98-.725 3.803-2.11 5.469-1.386 1.667-3.401 2.552-6.047 2.656-.812 0-1.589-.114-2.328-.343-.74-.229-1.422-.542-2.047-.938.229.021.458.031.688.031.666 0 1.301-.103 1.906-.312.604-.208 1.146-.51 1.625-.906-.625-.021-1.177-.213-1.656-.579-.48-.364-.813-.838-1-1.422.166.042.344.063.531.063.271 0 .521-.031.75-.094-.667-.145-1.214-.473-1.641-.984-.427-.51-.64-1.12-.64-1.828V4.7c.375.208.802.323 1.281.343-.375-.25-.677-.583-.906-.999-.23-.417-.344-.88-.344-1.391s.125-.985.375-1.422c.708.875 1.567 1.573 2.578 2.093 1.01.521 2.12.824 3.328.907-.062-.208-.093-.427-.093-.656.02-.813.301-1.49.843-2.032.542-.541 1.208-.822 2-.843.875.021 1.583.323 2.125.906.646-.125 1.25-.354 1.813-.687-.23.687-.646 1.218-1.25 1.593.562-.083 1.104-.239 1.625-.469-.396.583-.875 1.084-1.438 1.5z"/>
</svg>
